<svg viewBox="0 0 34 27" xmlns="http://www.w3.org/2000/svg" xmlns:xlink="http://www.w3.org/1999/xlink"><defs><path d="m0 6c0-2.211 1.792-4 4-4h26c2.209 0 4 1.798 4 4v16.994c0 2.211-1.792 4-4 4h-26c-2.209 0-4-1.798-4-4v-16.994m15.5 16.997c4.694 0 8.5-3.806 8.5-8.5 0-4.694-3.806-8.5-8.5-8.5-4.694 0-8.5 3.806-8.5 8.5 0 4.694 3.806 8.5 8.5 8.5m10.5-16.991c0-.557.443-1.01 1.01-1.01h1.981c.557 0 1.01.443 1.01 1.01v1.981c0 .557-.443 1.01-1.01 1.01h-1.981c-.557 0-1.01-.443-1.01-1.01v-1.981" id="0"/><mask id="1" maskContentUnits="userSpaceOnUse" maskUnits="objectBoundingBox" x="0" y="0" width="34" height="25" fill="#fff"><use xlink:href="#0"/></mask></defs><g fill="#fff" fill-rule="evenodd"><use stroke="#fff" mask="url(#1)" stroke-width="4" xlink:href="#0"/><circle cx="15.5" cy="14.5" r="6.5"/><path d="m6 0h6v3h-6z"/></g></svg>